HIERARCHY
ROOT Hips
{
 OFFSET 0.000000 0.000000 0.000000
 CHANNELS 6 Xposition Yposition Zposition Yrotation Xrotation Zrotation
 JOINT Chest
 {
  OFFSET 0.000000 9.585900 0.002600
  CHANNELS 3 Yrotation Xrotation Zrotation
  JOINT Chest2
  {
   OFFSET 0.000000 9.601200 -0.005300
   CHANNELS 3 Yrotation Xrotation Zrotation
   JOINT Chest3
   {
    OFFSET 0.000000 9.561800 0.000000
    CHANNELS 3 Yrotation Xrotation Zrotation
    JOINT Chest4
    {
     OFFSET 0.000000 9.552100 0.000000
     CHANNELS 3 Yrotation Xrotation Zrotation
     JOINT Neck
     {
      OFFSET 0.000000 14.453000 0.000000
      CHANNELS 3 Yrotation Xrotation Zrotation
      JOINT Head
      {
       OFFSET 0.000000 8.936500 -0.011300
       CHANNELS 3 Yrotation Xrotation Zrotation
       End Site
       {
        OFFSET 0.000000 17.073600 -0.006000
       }
      }
     }
     JOINT RightCollar
     {
      OFFSET -2.921100 9.558500 0.000000
      CHANNELS 3 Yrotation Xrotation Zrotation
      JOINT RightShoulder
      {
       OFFSET -13.519700 0.000000 0.000000
       CHANNELS 3 Yrotation Xrotation Zrotation
       JOINT RightElbow
       {
        OFFSET 0.000000 -29.696600 0.000000
        CHANNELS 3 Yrotation Xrotation Zrotation
        JOINT RightWrist
        {
         OFFSET 0.000000 -24.004700 0.000000
         CHANNELS 3 Yrotation Xrotation Zrotation
         End Site
         {
          OFFSET 0.000000 -17.728500 0.000000
         }
        }
       }
      }
     }
     JOINT LeftCollar
     {
      OFFSET 2.921100 9.558500 0.000000
      CHANNELS 3 Yrotation Xrotation Zrotation
      JOINT LeftShoulder
      {
       OFFSET 13.519700 0.000000 0.000000
       CHANNELS 3 Yrotation Xrotation Zrotation
       JOINT LeftElbow
       {
        OFFSET 0.000000 -29.696600 0.000000
        CHANNELS 3 Yrotation Xrotation Zrotation
        JOINT LeftWrist
        {
         OFFSET 0.000000 -24.004700 0.000000
         CHANNELS 3 Yrotation Xrotation Zrotation
         End Site
         {
          OFFSET 0.000000 -17.728500 0.000000
         }
        }
       }
      }
     }
    }
   }
  }
 }
 JOINT RightHip
 {
  OFFSET -7.771700 -0.012900 -0.001300
  CHANNELS 3 Yrotation Xrotation Zrotation
  JOINT RightKnee
  {
   OFFSET 0.000000 -40.869800 0.001200
   CHANNELS 3 Yrotation Xrotation Zrotation
   JOINT RightAnkle
   {
    OFFSET 0.000000 -39.717900 0.002100
    CHANNELS 3 Yrotation Xrotation Zrotation
    JOINT RightToe
    {
     OFFSET 0.000000 -4.965400 11.033500
     CHANNELS 3 Yrotation Xrotation Zrotation
     End Site
     {
      OFFSET 0.000000 -1.423100 5.872300
     }
    }
   }
  }
 }
 JOINT LeftHip
 {
  OFFSET 7.771700 -0.012900 -0.001300
  CHANNELS 3 Yrotation Xrotation Zrotation
  JOINT LeftKnee
  {
   OFFSET 0.000000 -40.869800 0.001200
   CHANNELS 3 Yrotation Xrotation Zrotation
   JOINT LeftAnkle
   {
    OFFSET 0.000000 -39.717900 0.002100
    CHANNELS 3 Yrotation Xrotation Zrotation
    JOINT LeftToe
    {
     OFFSET 0.000000 -4.965400 11.033500
     CHANNELS 3 Yrotation Xrotation Zrotation
     End Site
     {
      OFFSET 0.000000 -1.423100 5.872300
     }
    }
   }
  }
 }
}
MOTION
Frames: 5
Frame Time: 0.008333
0.000000 85.388000 0.000000 0.000000 -5.767877 0.000000 0.000000 11.653817 0.000000 0.000000 -5.885947 0.000000 0.000000 -0.000000 0.000000 0.000000 -0.000000 0.000000 0.000000 12.528835 0.000000 0.000000 0.711642 0.000000 0.000000 -0.000000 0.000000 0.000000 0.000000 -90.000000 0.000000 -2.309062 0.000000 0.000000 2.309062 0.000000 0.000000 -0.000000 0.000000 0.000000 -0.000000 90.000000 0.000000 -2.309062 0.000000 0.000000 2.309062 0.000000 0.000000 8.520406 0.000000 0.000000 1.905762 0.000000 -0.000000 -4.658285 0.000000 0.000000 -0.000000 0.000000 0.000000 8.520406 0.000000 0.000000 1.905762 0.000000 -0.000000 -4.658285 0.000000 0.000000 -0.000000 0.000000
8.136405 50.018279 46.360019 173.771989 -33.747753 -6.927757 8.741771 20.396518 8.944511 1.112143 3.053752 0.970838 1.824094 4.922758 1.599416 7.329491 17.308434 6.597853 -3.487376 20.124549 3.119831 -7.275044 1.864447 6.714600 -1.368150 -4.377195 -5.129058 0.545694 -2.389953 -4.995706 -153.578908 -48.165512 159.123260 -9.704124 -9.345883 23.161566 -13.006050 -6.244950 0.926713 -5.851740 -17.881138 -0.777440 135.918279 -60.573750 -140.553485 43.419360 9.641231 -25.236037 -0.685589 -46.689052 9.666709 -120.555998 85.268453 -108.327825 -0.876893 -12.991971 -4.607690 -0.214476 0.766658 -0.040833 -8.348319 -50.864156 15.607118 -151.744357 81.077505 -158.927713 0.151456 -15.525224 7.666293 -0.251010 -0.798504 -0.084719
8.139876 50.020808 46.354278 173.794536 -33.765694 -6.934062 8.743387 20.514953 8.977275 1.114184 3.090725 0.975990 1.826741 4.979577 1.607116 7.304869 17.411828 6.594038 -3.513166 19.898800 3.090973 -7.329202 1.445917 6.685947 -1.266623 -4.365356 -5.128306 0.560326 -2.631740 -4.957436 -153.741479 -48.470211 158.925294 -9.692243 -9.342102 22.759468 -13.049718 -6.274078 0.884821 -5.910194 -18.041205 -0.774246 135.253085 -60.530153 -139.674347 43.226946 9.941532 -25.014838 -0.669002 -46.673823 9.649224 -120.606564 85.253767 -108.363531 -0.882865 -12.969192 -4.617708 -0.206235 0.756587 -0.035894 -8.209388 -50.868097 15.531891 -151.613304 81.060167 -158.743462 0.122769 -15.498041 7.703158 -0.241603 -0.817397 -0.079914
8.140059 50.023613 46.346971 173.814792 -33.781656 -6.915026 8.725019 20.585756 8.964812 1.108241 3.170557 0.993744 1.826910 5.032021 1.613645 7.274774 17.508459 6.588274 -3.534270 19.687934 3.057362 -7.372397 1.054117 6.646278 -1.174706 -4.353110 -5.116098 0.619257 -2.885453 -4.935798 -153.963647 -48.864111 158.736884 -9.647659 -9.312913 22.252231 -13.081621 -6.297705 0.839981 -5.967138 -18.182459 -0.777345 134.664008 -60.519061 -138.841046 43.024723 10.191467 -24.890406 -0.635620 -46.661539 9.607975 -120.752863 85.240443 -108.513054 -0.887824 -12.962539 -4.611510 -0.210623 0.756706 -0.038294 -8.150643 -50.854581 15.478758 -151.522773 81.055573 -158.660191 0.123219 -15.479170 7.726820 -0.250399 -0.829704 -0.085389
8.141131 50.026822 46.339455 173.827879 -33.791538 -6.895351 8.709623 20.648987 8.954513 1.094468 3.240672 1.004861 1.825315 5.079872 1.618878 7.241658 17.597622 6.580337 -3.533599 19.481982 3.017655 -7.424966 0.696127 6.605031 -1.091033 -4.341525 -5.095280 0.715814 -3.128368 -4.926010 -154.237839 -49.322965 158.557551 -9.577517 -9.247545 21.647896 -13.105941 -6.311517 0.797798 -6.023092 -18.302374 -0.785599 134.208653 -60.552507 -138.097516 42.799176 10.398417 -24.904943 -0.611914 -46.652680 9.574583 -120.890432 85.234499 -108.659204 -0.883671 -12.953528 -4.606227 -0.233498 0.755728 -0.045643 -8.094239 -50.846116 15.435298 -151.400132 81.048691 -158.546704 0.128756 -15.459801 7.747634 -0.259654 -0.843664 -0.088383
